<?xml version="1.0" encoding="UTF-8"?>
<!DOCTYPE svg PUBLIC "-//W3C//DTD SVG 1.1//EN" "http://www.w3.org/Graphics/SVG/1.1/DTD/svg11.dtd">
<!-- Creator: CorelDRAW -->
<svg xmlns="http://www.w3.org/2000/svg" xml:space="preserve" width="0.553913in" height="0.388579in" style="shape-rendering:geometricPrecision; text-rendering:geometricPrecision; image-rendering:optimizeQuality; fill-rule:evenodd; clip-rule:evenodd"
viewBox="0 0 0.0609924 0.0427871"
 xmlns:xlink="http://www.w3.org/1999/xlink">
 <defs>
  <style type="text/css">
   <![CDATA[
    .fil0 {fill:white;fill-rule:nonzero}
   ]]>
  </style>
 </defs>
 <g id="Layer_x0020_1">
  <metadata id="CorelCorpID_0Corel-Layer"/>
  <path class="fil0" d="M0.0335837 0.0172321l0 0c0.000104043,4.29176e-005 0.000174705,0.000110112 0.00021112,0.000202016 3.9883e-005,9.19043e-005 4.29176e-005,0.000189444 6.06915e-006,0.000290452 -0.00172191,0.0040802 -0.00403122,0.00619704 -0.0069275,0.00635267 -0.000315162,0.00211683 -0.000670208,0.00382053 -0.00105863,0.00511716 -0.000382357,0.0015537 -0.00123247,0.00349323 -0.00255381,0.00581468 -0.000672809,0.00112539 -0.00149865,0.00218966 -0.00247145,0.00319931 -0.000997075,0.00100011 -0.00208909,0.00184112 -0.00326954,0.00252954 -3.07793e-005,1.51729e-005 -6.41596e-005,3.33803e-005 -0.000101008,5.20213e-005 -0.000263141,0.000131354 -0.000525849,0.000265742 -0.000785955,0.000403599 -1.21383e-005,6.06915e-006 -2.47101e-005,1.21383e-005 -3.68484e-005,1.82075e-005 -0.000137423,6.41596e-005 -0.000272245,0.000131787 -0.000403599,0.000195947 -0.000113146,4.29176e-005 -0.000226293,8.84362e-005 -0.000339439,0.000134388 -3.68484e-005,1.25718e-005 -7.36969e-005,2.47101e-005 -0.000110112,3.68484e-005 -3.9883e-005,1.82075e-005 -8.28006e-005,3.38139e-005 -0.000125718,4.59522e-005 -0.000256638,0.000101008 -0.000507641,0.000198548 -0.000752141,0.000293487 -0.000189878,6.1125e-005 -0.000382357,0.000113146 -0.000572234,0.000162133 -0.000100575,3.07793e-005 -0.000201583,5.80905e-005 -0.000296521,7.9766e-005 -9.49389e-005,3.03458e-005 -0.000189444,5.80905e-005 -0.000287418,8.23671e-005 -0.000183809,5.20213e-005 -0.000364149,9.79735e-005 -0.000535386,0.000134388 -0.000275279,4.59522e-005 -0.000541455,9.49389e-005 -0.000798094,0.000143926 -6.76277e-005,9.10373e-006 -0.000131787,2.1242e-005 -0.000198982,3.38139e-005 -0.000189444,3.03458e-005 -0.000376287,6.1125e-005 -0.000553593,9.14708e-005 -0.000214154,1.56064e-005 -0.00042224,3.38139e-005 -0.000617753,5.20213e-005 -2.47101e-005,0 -4.89867e-005,3.03458e-006 -7.36969e-005,9.10373e-006 -0.00015563,6.50266e-006 -0.000305625,1.8641e-005 -0.00045562,3.68484e-005 -0.000263141,2.47101e-005 -0.000510676,3.68484e-005 -0.000743038,4.29176e-005 -0.000143926,0 -0.000281782,0 -0.000413136,0 -0.00018641,0 -0.000348543,0 -0.000492468,0 -0.00051978,-6.06915e-006 -0.000779886,-9.10373e-006 -0.000779886,-9.10373e-006l0 0c-0.00367357,0 -0.00607132,-0.00135516 -0.00718761,-0.00406807 -0.000572234,-0.00170673 -0.000535386,-0.00354785 0.000113146,-0.00551773 0.000648099,-0.00197291 0.00176786,-0.0036584 0.00336448,-0.00505604 0.0031837,-0.00255078 0.00623345,-0.00404032 0.00914535,-0.0044747 0.00291146,-0.000434378 0.00558189,-0.000523248 0.00801345,-0.000272245 0.00118999,7.62979e-005 0.00230628,0.000113146 0.00335234,0.000107077 4.89867e-005,-0.000244934 9.19043e-005,-0.000492468 0.000134388,-0.000743471 0.000137856,-0.000807197 0.000266176,-0.00197247 0.000385391,-0.00349583 0.000119216,-0.00152336 0.000229327,-0.00308313 0.000330335,-0.00467672 0.000113146,-0.00189921 0.000223258,-0.00336448 0.000324266,-0.00439233 0.000119216,-0.00127842 0.000232362,-0.00248358 0.000339439,-0.00361808 0.000107077,-0.00113493 0.000205051,-0.00213808 0.000287851,-0.0030038 6.41596e-005,-0.000638995 0.000125285,-0.00118045 0.000177306,-0.0016209 -0.0026856,0.00107944 -0.00508031,0.00272505 -0.00717547,0.00492729 -0.00132741,0.00160269 -0.00184155,0.00320841 -0.00154156,0.00482064 1.82075e-005,0.000110112 -3.03458e-006,0.000204617 -6.45931e-005,0.000287418 -5.80905e-005,8.23671e-005 -0.000140458,0.000137423 -0.000241466,0.000162133 -2.42766e-005,0 -4.59522e-005,0 -7.02288e-005,0 -8.88697e-005,0 -0.000171237,-2.77447e-005 -0.000241899,-8.58352e-005 -7.32633e-005,-5.80905e-005 -0.000116181,-0.000128319 -0.000134388,-0.000220224 -0.000342474,-0.00185022 0.000229327,-0.00366707 0.00170977,-0.0054475 0.00102179,-0.00118348 0.00225122,-0.00222651 0.00368874,-0.00313168 0.00143752,-0.000905604 0.00282606,-0.0016365 0.00417211,-0.0021901 2.73112e-005,-0.000217189 4.24841e-005,-0.000324266 4.24841e-005,-0.000324266 3.07793e-005,-0.000171237 0.000104043,-0.000281349 0.000217189,-0.000330335 0.000113146,-4.89867e-005 0.000223258,-4.29176e-005 0.000336404,1.82075e-005 0.000110112,5.80905e-005 0.000177739,0.000162133 0.000198982,0.000312128 0.00136426,-0.000495503 0.00229111,-0.000743038 0.00278054,-0.000743038 0.000100575,0 0.000189444,3.64149e-005 0.000262708,0.000106644 7.36969e-005,7.36969e-005 0.000113146,0.000162133 0.000113146,0.00026921 0,0.000107077 -3.94495e-005,0.000198982 -0.000113146,0.000275279 -7.32633e-005,7.36969e-005 -0.000162133,0.000110112 -0.000262708,0.000110112 -0.000400998,0 -0.00133695,0.000272245 -0.00280482,0.000816735 -1.8641e-005,0.000495503 -3.38139e-005,0.00117785 -4.59522e-005,0.00204314 -1.21383e-005,0.000633359 -2.47101e-005,0.00133651 -3.68484e-005,0.0021138 -1.21383e-005,0.0013855 -3.68484e-005,0.00290236 -7.93325e-005,0.004551 -1.25718e-005,0.000419205 -2.47101e-005,0.000945054 -3.68484e-005,0.00157841 -3.9883e-005,0.00178607 -0.000101008,0.00380493 -0.000177306,0.00605918 -7.9766e-005,0.00225122 -0.000183809,0.00396099 -0.000315162,0.00513234 -6.06915e-006,4.89867e-005 -1.21383e-005,9.49389e-005 -1.82075e-005,0.000143492 -6.06915e-006,3.68484e-005 -9.10373e-006,7.36969e-005 -9.10373e-006,0.000107077 0.00256899,-0.000207652 0.00460605,-0.00216235 0.00611077,-0.0058602 4.29176e-005,-9.49389e-005 0.000110112,-0.000162133 0.000202016,-0.000205051 9.49389e-005,-4.24841e-005 0.000189878,-4.55186e-005 0.000290452,-9.10373e-006zm-0.00996165 0.0113172l0 0c0.000327301,-0.00109201 0.000681913,-0.0025265 0.00106427,-0.00430043 -0.00103999,6.06915e-006 -0.0021164,-2.77447e-005 -0.00323312,-9.79735e-005 -0.00246841,-0.000251003 -0.00509245,-0.000168202 -0.00787299,0.000253604 -0.00278011,0.00042224 -0.00569807,0.00185976 -0.00875042,0.00431603 -0.00145616,0.00127842 -0.00249312,0.00283516 -0.00310481,0.00466718 -0.000611684,0.00183549 -0.000660671,0.00352358 -0.000146527,0.00506211 0.000929881,0.00237954 0.00308616,0.00356649 0.00646885,0.00356649l0 0c0,0 0.000119216,-6.06915e-006 0.00035808,-2.47101e-005 0.000106644,-6.06915e-006 0.000238431,-1.82075e-005 0.000394495,-3.64149e-005 0.000125285,-6.06915e-006 0.000262708,-1.51729e-005 0.000412702,-2.77447e-005 0.000143926,-1.21383e-005 0.000293487,-2.73112e-005 0.00045562,-4.24841e-005 0.000214154,-1.8641e-005 0.00044695,-5.20213e-005 0.00069145,-0.000101008 0.000143926,-2.47101e-005 0.000287418,-4.59522e-005 0.000437413,-7.06623e-005 0.00179213,-0.000226293 0.00376808,-0.000984503 0.00592436,-0.0022755 0.00100965,-0.000694051 0.00192392,-0.00150775 0.00274066,-0.00244674 0.000801562,-0.000957626 0.00147741,-0.00195774 0.00202493,-0.0030038 0.00107034,-0.00216842 0.00178,-0.0039792 0.00213504,-0.00543796z"/>
  <path id="1" class="fil0" d="M0.0416955 0.017177l0 0c0.000100575,4.29176e-005 0.000174271,0.000110112 0.000220224,0.000198982 4.55186e-005,8.84362e-005 4.89867e-005,0.000183375 1.21383e-005,0.000287418 -0.00042224,0.00111022 -0.00103392,0.00183505 -0.00183202,0.00217146 -0.000798527,0.000336838 -0.00150818,0.000508075 -0.00213808,0.000508075 -3.03458e-006,0 -1.21383e-005,-3.03458e-006 -2.47101e-005,-9.53724e-006 -6.06915e-006,0 -1.21383e-005,0 -1.82075e-005,0 -9.49389e-005,0.000272245 -0.000275279,0.000615152 -0.000538421,0.00102179 -0.000281349,0.000477296 -0.00078899,0.000865721 -0.00152292,0.00116224 -0.000186843,6.1125e-005 -0.000397963,9.19043e-005 -0.000636394,9.19043e-005 -0.000238431,0 -0.000470793,-5.20213e-005 -0.000700554,-0.000153029 -0.000220224,-0.000107077 -0.000415737,-0.000254037 -0.000590008,-0.000440447 -0.000156064,-0.000171237 -0.000281349,-0.000351577 -0.000376287,-0.000535386 -0.000339439,-0.000749107 -0.000504607,-0.0014618 -0.000492468,-0.00214415 0,-0.000678878 7.32633e-005,-0.00128753 0.000223258,-0.00182595 0,0 0,0 0,0 0,-6.06915e-006 0,-9.10373e-006 0,-9.10373e-006 -8.88697e-005,-0.000324266 -0.000134388,-0.000675844 -0.000134388,-0.0010582 0,-0.00087179 0.000317764,-0.00159055 0.000951123,-0.00215325 0.000632926,-0.000565732 0.00143449,-0.000847514 0.00240078,-0.000847514 0.000746506,0 0.00133391,0.000306059 0.00176482,0.000920777 0.000746506,0.0012264 0.000721796,0.00296088 -7.02288e-005,0.00520907 0.000535386,-6.06915e-006 0.00109505,-0.000159099 0.00167292,-0.000459088 0.000581338,-0.000296521 0.00102785,-0.000862253 0.00134605,-0.00169416 3.68484e-005,-0.000101008 9.79735e-005,-0.000174705 0.00018641,-0.000217189 9.19043e-005,-4.59522e-005 0.000189878,-5.20213e-005 0.000296955,-2.47101e-005zm-0.00509896 0.00354178l0 0c0.000156064,-0.00015563 0.000281349,-0.000311694 0.000376287,-0.000467758 -3.9883e-005,-6.06915e-006 -7.32633e-005,-1.21383e-005 -9.79735e-005,-1.82075e-005 -0.000807197,-0.000165168 -0.00147741,-0.000407067 -0.00201539,-0.000725264 -6.76277e-005,0.000483365 -4.29176e-005,0.000926846 7.02288e-005,0.00132784 3.68484e-005,0.000100575 7.32633e-005,0.000180341 0.000107077,0.000241466 3.03458e-005,5.80905e-005 7.02288e-005,0.000107077 0.000116181,0.000143926 4.89867e-005,3.94495e-005 0.000104043,7.02288e-005 0.000168202,8.23671e-005 6.1125e-005,1.51729e-005 0.000143926,1.82075e-005 0.0002445,6.06915e-006 0.000394928,-7.02288e-005 0.000737402,-0.00026921 0.00103089,-0.000590442zm0.00078899 -0.00117438l0 0c0.000789423,-0.00209819 0.000868756,-0.00368268 0.000241899,-0.00475908 -0.000263141,-0.000388426 -0.000639429,-0.000581338 -0.00112886,-0.000581338 -0.00125371,0 -0.00208605,0.000526282 -0.00249269,0.00157538l0 0c0.000143926,-0.000177306 0.000348543,-0.000247968 0.000611684,-0.000205051 0.000257072,4.89867e-005 0.000498538,0.000183375 0.00072483,0.000413136 0.000220224,0.000232362 0.000376287,0.00045562 0.000465157,0.000669774 0.000104043,0.000204617 0.000119216,0.000360681 5.50559e-005,0.000467758 0,0 -6.71942e-005,7.9766e-005 -0.000198982,0.000241899 -0.000131354,0.000168202 -0.000275279,0.000427875 -0.000437413,0.000779886 -7.62979e-005,0.000165168 -0.000146527,0.000354612 -0.000204617,0.000562697 0.000489,0.000348543 0.00115921,0.000608649 0.00201539,0.000779886 5.20213e-005,1.21383e-005 0.000168202,3.07793e-005 0.000348543,5.50559e-005z"/>
  <path id="12" class="fil0" d="M0.0549913 0.0177154l0 0c-0.00116831,0.00259977 -0.00278964,0.00478986 -0.00485706,0.00656986 9.79735e-005,0.000125285 0.000180341,0.000257072 0.000253604,0.000394495 0.000483365,0.000798527 0.000786389,0.00168853 0.000911673,0.00267043 0.000217189,0.00198201 -0.000153029,0.00386909 -0.00111022,0.00566165 -0.000452585,0.000865288 -0.00100314,0.00165775 -0.00164864,0.00237347 -0.000657636,0.000712692 -0.00137033,0.0013118 -0.00214111,0.00180124 -0.000782921,0.000492468 -0.00158145,0.000850548 -0.00239168,0.00107684 -0.000205051,4.89867e-005 -0.000404032,9.79735e-005 -0.00060258,0.000153029 -0.000131787,2.42766e-005 -0.000263141,3.94495e-005 -0.000394495,5.20213e-005 -6.45931e-005,1.21383e-005 -0.000134822,2.42766e-005 -0.000205051,3.64149e-005 -0.000281349,4.29176e-005 -0.000556628,6.41596e-005 -0.000825838,6.41596e-005 -0.000101008,0 -0.000202016,3.03458e-006 -0.000303024,6.06915e-006 -0.000721796,0 -0.00138247,-9.45054e-005 -0.00198201,-0.000284383 -0.000608649,-0.00021112 -0.00107034,-0.000516745 -0.00138854,-0.000923378 -0.000281349,-0.000413136 -0.000425274,-0.00075561 -0.000437413,-0.00103089 -1.82075e-005,-0.000131787 -2.42766e-005,-0.000229327 -1.82075e-005,-0.000296955 -6.06915e-006,-6.41596e-005 -9.10373e-006,-9.754e-005 -9.10373e-006,-9.754e-005l9.10373e-006 0c0.000101008,-0.00184459 0.000721796,-0.00338615 0.0018628,-0.00462469 0.00114057,-0.00123594 0.00245887,-0.00232145 0.00395145,-0.00326044 0.00154156,-0.00100358 0.00301897,-0.00204661 0.00442918,-0.00312605 -0.000205051,-0.000198982 -0.000413136,-0.000373253 -0.000630325,-0.000520213 -0.00100314,-0.000617753 -0.001881,-0.00096933 -0.00263315,-0.0010582 -0.00011358,-1.82075e-005 -0.000217189,-3.94495e-005 -0.000312128,-6.41596e-005 -0.000205051,-3.9883e-005 -0.000376287,-6.41596e-005 -0.000510676,-7.02288e-005 -0.000198982,-1.8641e-005 -0.000296955,-2.77447e-005 -0.000296955,-2.77447e-005 -0.000204617,-3.03458e-005 -0.000394495,-7.62979e-005 -0.000574835,-0.000143492 -2.16755e-005,-6.06915e-006 -4.29176e-005,-1.25718e-005 -6.1125e-005,-1.8641e-005 -0.000198982,-6.41596e-005 -0.000373253,-0.000152596 -0.000529317,-0.000265742 -0.000315162,-0.000229761 -0.000483365,-0.000502006 -0.000501572,-0.000816735 0,0 0,0 0,0 -6.06915e-006,0 -9.10373e-006,0 -9.10373e-006,0 0,-6.06915e-006 3.03458e-006,-9.10373e-006 9.10373e-006,-9.10373e-006 0,0 0,0 0,0 0,0 0,0 0,0 -6.06915e-006,0 -9.10373e-006,0 -9.10373e-006,0 1.21383e-005,-0.000321232 0.000198548,-0.000584373 0.000565732,-0.000789423 0.000177306,-9.45054e-005 0.000385391,-0.000165168 0.000617753,-0.000214154 0.000238865,-4.24841e-005 0.000495503,-4.55186e-005 0.000770782,-9.10373e-006 0,0 7.9766e-005,1.21383e-005 0.000241899,3.68484e-005 0.000908205,-0.000489434 0.00174315,-0.00120516 0.00250483,-0.00214718 0.000761679,-0.000942019 0.0011319,-0.00182291 0.00111326,-0.00264268 -1.51729e-005,-0.000822804 -0.000798094,-0.00123247 -0.00234573,-0.00123247 -0.000633359,0 -0.0013092,0.000223258 -0.00202493,0.000672809 -0.000718761,0.000446516 -0.00125718,0.00118348 -0.00162393,0.00221134 -7.67314e-005,0.000180341 -0.000195947,0.00026921 -0.00035808,0.00026921 -3.9883e-005,0 -7.93325e-005,-6.06915e-006 -0.000116181,-1.8641e-005 -0.000101008,-3.33803e-005 -0.000174271,-9.754e-005 -0.000223258,-0.000192479 -4.89867e-005,-9.19043e-005 -5.80905e-005,-0.000189444 -2.77447e-005,-0.000290452 0.00105213,-0.00251436 0.00283256,-0.00377155 0.00534042,-0.00377155 0.00147741,0 0.00240729,0.000501572 0.00279571,0.00150818 0.000388426,0.00100618 0.000296521,0.00210123 -0.000272245,0.00328168 -0.000571801,0.00117785 -0.00156281,0.00210426 -0.00297909,0.002771 0.000801562,0.000217189 0.00169459,0.000679312 0.00267953,0.00138897 7.02288e-005,6.1125e-005 0.000143492,0.00012225 0.000214154,0.000180341 8.23671e-005,6.71942e-005 0.000168202,0.000134388 0.000250569,0.000205051 7.32633e-005,7.32633e-005 0.000143926,0.000146527 0.000214154,0.000226293 7.32633e-005,7.62979e-005 0.00014696,0.000153029 0.000226293,0.000232362 6.06915e-006,6.06915e-006 1.21383e-005,1.21383e-005 1.82075e-005,1.82075e-005 3.03458e-006,1.25718e-005 9.53724e-006,1.8641e-005 1.56064e-005,1.8641e-005 0.00198505,-0.00167335 0.00355089,-0.00378065 0.00469796,-0.00631929 7.02288e-005,-0.000143926 0.000171237,-0.000208085 0.000299556,-0.000195947 0.000128753,1.25718e-005 0.000232795,7.36969e-005 0.000318197,0.000183809 8.28006e-005,0.000110112 9.79735e-005,0.000241466 4.29176e-005,0.00039753zm-0.00617233 0.0146232l0 0c0.000727865,-0.00160572 0.000960227,-0.00317764 0.000697519,-0.00471313 -0.000153029,-0.000810665 -0.000449984,-0.00150515 -0.000887397,-0.00207695 -0.000816301,0.000633359 -0.00166381,0.00123897 -0.00253561,0.00181684 -0.000369785,0.000247968 -0.000752141,0.000495503 -0.00114664,0.000746506 -0.00154763,0.000917309 -0.00296088,0.00198505 -0.0042393,0.00320235 -0.00127842,0.00121426 -0.00197594,0.00275886 -0.00209516,0.00462773l0 0c0,0 0,2.42766e-005 0,7.32633e-005 0,3.9883e-005 9.10373e-006,0.000104043 2.73112e-005,0.00018641 1.8641e-005,0.000180774 0.00012225,0.000391894 0.000312128,0.000636394 0.000198548,0.0002445 0.000535386,0.000440447 0.00101225,0.000584373 0.00048033,0.000134388 0.00104303,0.00018641 0.00169459,0.000149561 9.49389e-005,-1.21383e-005 0.000192479,-1.82075e-005 0.000296521,-2.42766e-005 0.000226293,-6.06915e-006 0.000459088,-3.68484e-005 0.000697519,-9.19043e-005 6.1125e-005,-1.21383e-005 0.000119216,-2.42766e-005 0.000180341,-3.33803e-005 0.000107077,-1.8641e-005 0.000217189,-4.29176e-005 0.000330335,-7.36969e-005 7.36969e-005,-1.82075e-005 0.000143926,-3.9883e-005 0.000214154,-6.1125e-005 9.79735e-005,-3.03458e-005 0.000195947,-6.1125e-005 0.000296955,-9.19043e-005 0.00070012,-0.000232362 0.0013764,-0.00057787 0.0020336,-0.00103956 0.000651567,-0.000471226 0.00124504,-0.00102785 0.00178346,-0.00167335 0.000531918,-0.000657636 0.000975833,-0.00137336 0.00132741,-0.00214415z"/>
  <path id="123" class="fil0" d="M0.0570895 0.0119285l0 0c-0.000113146,5.80905e-005 -0.000290452,7.02288e-005 -0.000525849,3.38139e-005 -0.00023583,-3.38139e-005 -0.000462123,-9.79735e-005 -0.000676277,-0.000186843 -0.000213721,-9.14708e-005 -0.000342474,-0.000189444 -0.000385391,-0.000296521 -3.03458e-005,-0.000107077 -4.24841e-005,-0.000324266 -3.94495e-005,-0.000654602 3.03458e-006,-0.000327301 2.42766e-005,-0.000685381 6.1125e-005,-0.00107077 3.9883e-005,-0.000384958 0.000101008,-0.000715293 0.00018641,-0.000990572 2.16755e-005,-7.06623e-005 6.41596e-005,-0.000128753 0.000119216,-0.000168636 5.80905e-005,-4.24841e-005 0.000125718,-6.1125e-005 0.000202016,-5.50559e-005 0.000131354,6.50266e-006 0.000284383,3.46809e-006 0.00045562,-9.10373e-006 0.000287851,-1.82075e-005 0.000556628,-1.21383e-005 0.000807631,1.8641e-005 0.000251003,3.03458e-005 0.000394495,0.000128319 0.000431343,0.000296521 1.21383e-005,0.000165168 -9.10373e-006,0.000413136 -6.41596e-005,0.000736969 -5.20213e-005,0.000327301 -0.000119649,0.00066674 -0.000202016,0.00101875 -7.93325e-005,0.000351577 -0.000156064,0.000654602 -0.000226293,0.000908205 -7.32633e-005,0.000254037 -0.000119216,0.000394928 -0.000143926,0.000419205zm0.00379886 0.00535863l0 0c3.07793e-005,1.51729e-005 5.50559e-005,3.9883e-005 7.67314e-005,7.02288e-005 2.1242e-005,3.07793e-005 2.73112e-005,5.8524e-005 2.1242e-005,7.9766e-005 0,0 -0.000101008,0.000305625 -0.000299556,0.000920777 -0.000198982,0.000611684 -0.000495503,0.0013118 -0.000887397,0.00210123 -0.00039146,0.000785955 -0.000877426,0.00148044 -0.0014618,0.00207652 -0.000581338,0.000599546 -0.00125415,0.000911673 -0.00201886,0.000942453 -0.000342474,-6.50266e-006 -0.000632926,-7.9766e-005 -0.00087786,-0.000223692 -0.000675844,-0.00045562 -0.0010673,-0.00128753 -0.00117438,-0.00249572 -0.000107077,-0.00121123 -6.41596e-005,-0.00252043 0.000134388,-0.00393021 6.50266e-006,-5.20213e-005 1.56064e-005,-0.000107077 2.77447e-005,-0.000162133 7.62979e-005,-0.000529317 0.000128319,-0.000865721 0.000149995,-0.00100314 6.06915e-006,-3.07793e-005 9.10373e-006,-4.29176e-005 9.10373e-006,-4.29176e-005l0 -2.77447e-005c1.21383e-005,-6.1125e-005 2.1242e-005,-0.000119216 2.73112e-005,-0.000180341 6.06915e-006,-6.06915e-006 9.53724e-006,-9.10373e-006 9.53724e-006,-1.21383e-005 0,-3.03458e-006 0,-6.06915e-006 0,-6.06915e-006 4.24841e-005,-0.000208085 0.00012225,-0.000468192 0.000241466,-0.000779886 0.000119216,-0.000309093 0.000281349,-0.000575269 0.000483365,-0.000795493 0.000168202,-0.000168202 0.000369785,-0.000256638 0.000611684,-0.00026921 0.000302591,1.25718e-005 0.000507641,0.000131787 0.000611684,0.000361115 0.000104043,0.000232362 0.000153029,0.000507641 0.000140458,0.000828873 -1.21383e-005,0.000324266 -4.24841e-005,0.000629891 -9.14708e-005,0.000914708 -6.06915e-006,6.71942e-005 -1.21383e-005,0.000131354 -1.51729e-005,0.000198548l-9.53724e-006 1.82075e-005c-9.754e-005,0.000541455 -0.000180341,0.00107988 -0.000250569,0.00161223 0,6.06915e-006 0,9.10373e-006 0,9.10373e-006 -0.000162133,0.00107337 -0.000244934,0.0020401 -0.000244934,0.00289325 -6.06915e-006,0.000364149 1.56064e-005,0.000694485 6.45931e-005,0.000984937 9.45054e-005,0.000706623 0.000351577,0.00107077 0.000770782,0.00109505 0.000433944,-2.42766e-005 0.000850115,-0.000296521 0.00124461,-0.000816735 0.000394495,-0.00051978 0.000746506,-0.00111933 0.0010582,-0.00180124 0.000309093,-0.000679312 0.000556628,-0.00128493 0.000740437,-0.00181684 0.000180341,-0.000532351 0.000272245,-0.000798527 0.000272245,-0.000798527 1.21383e-005,-3.64149e-005 5.50559e-005,-5.80905e-005 0.000134388,-6.71942e-005 7.67314e-005,-9.10373e-006 0.000168202,-3.03458e-006 0.00026921,2.1242e-005 9.49389e-005,2.47101e-005 0.000171237,5.80905e-005 0.000232362,0.000101008z"/>
 </g>
</svg>
